<?xml version="1.0" encoding="UTF-8"?>
<svg xmlns="http://www.w3.org/2000/svg" xmlns:xlink="http://www.w3.org/1999/xlink" viewBox="0 0 144 144" width="144px" height="144px">
<g id="surface338086145">
<path style=" stroke:none;fill-rule:nonzero;fill:rgb(20.392157%,59.607846%,85.882354%);fill-opacity:1;" d="M 72 22.5 C 99.335938 22.5 121.5 44.664062 121.5 72 C 121.5 93.976562 107.167969 112.601562 87.347656 119.0625 C 87.351562 119.042969 87.359375 119.015625 87.359375 119.015625 C 87.359375 119.015625 84.019531 117.449219 84.089844 114.652344 C 84.171875 111.578125 84.089844 104.402344 84.089844 101.765625 C 84.089844 97.246094 81.230469 94.039062 81.230469 94.039062 C 81.230469 94.039062 103.679688 94.292969 103.679688 70.339844 C 103.679688 61.101562 98.847656 56.289062 98.847656 56.289062 C 98.847656 56.289062 101.386719 46.425781 97.96875 42.238281 C 94.140625 41.824219 87.285156 45.898438 84.355469 47.800781 C 84.355469 47.800781 79.71875 45.898438 72 45.898438 C 64.28125 45.898438 59.644531 47.800781 59.644531 47.800781 C 56.714844 45.898438 49.859375 41.824219 46.03125 42.238281 C 42.613281 46.425781 45.152344 56.289062 45.152344 56.289062 C 45.152344 56.289062 40.320312 61.097656 40.320312 70.339844 C 40.320312 94.292969 62.769531 94.039062 62.769531 94.039062 C 62.769531 94.039062 60.507812 96.597656 60.015625 100.355469 C 58.449219 100.886719 56.140625 101.542969 54.277344 101.542969 C 49.40625 101.542969 45.703125 96.804688 44.34375 94.617188 C 43.003906 92.457031 40.257812 90.644531 37.699219 90.644531 C 36.011719 90.644531 35.191406 91.488281 35.191406 92.449219 C 35.191406 93.414062 37.550781 94.085938 39.113281 95.871094 C 42.398438 99.640625 42.339844 108.109375 54.054688 108.109375 C 55.324219 108.109375 57.921875 107.796875 59.878906 107.53125 C 59.867188 110.199219 59.859375 113.011719 59.902344 114.65625 C 59.972656 117.453125 56.632812 119.019531 56.632812 119.019531 C 56.632812 119.019531 56.644531 119.046875 56.648438 119.066406 C 36.832031 112.601562 22.5 93.976562 22.5 72 C 22.5 44.664062 44.664062 22.5 72 22.5 Z M 72 22.5 "/>
</g>
</svg>
